<svg version="1.1" viewBox="0.0 0.0 139.86614173228347 100.0" fill="none" stroke="none" stroke-linecap="square" stroke-miterlimit="10" xmlns:xlink="http://www.w3.org/1999/xlink" xmlns="http://www.w3.org/2000/svg"><clipPath id="p.0"><path d="m0 0l139.86613 0l0 100.0l-139.86613 0l0 -100.0z" clip-rule="nonzero"/></clipPath><g clip-path="url(#p.0)"><path fill="#000000" fill-opacity="0.0" d="m0 0l139.86613 0l0 100.0l-139.86613 0z" fill-rule="evenodd"/><path fill="#000000" fill-opacity="0.0" d="m0 0l140.40945 0l0 101.19685l-140.40945 0z" fill-rule="evenodd"/><path fill="#28ae60" d="m72.92244 17.377502q1.796875 0.265625 2.46875 1.09375q0.671875 0.828125 0.671875 2.171875q0 4.421875 -4.734375 4.09375l-2.25 -0.1875q-3.765625 -0.3125 -7.515621 -0.5q-3.75 -0.203125 -7.84375 -0.203125l-2.875 0q-0.765625 9.46875 -1.59375 17.28125l11.0 -0.1875q2.375 0 3.171875 0.828125q0.7968712 0.828125 0.7968712 2.234375q0 2.1875 -1.2812462 3.4375q-1.28125 1.234375 -3.640625 1.234375l-10.953125 0l-0.375 2.75q-1.34375 10.5625 -5.734375 15.046875q-4.375 4.484375 -12.0625 4.484375q-4.359375 0 -8.0 -1.890625q-3.640625 -1.890625 -5.375 -4.578125q-0.703125 -1.09375 -0.703125 -2.625q0 -1.53125 0.734375 -2.6875q0.734375 -1.15625 1.828125 -1.15625q0.765625 0 1.5 0.515625q0.734375 0.515625 1.890625 1.984375q3.0625 4.03125 7.609375 4.03125q3.65625 0 6.109375 -2.96875q2.46875 -2.984375 3.171875 -9.375l0.390625 -3.53125l-3.078125 0q-1.46875 0 -2.53125 -0.828125q-1.046875 -0.828125 -1.046875 -2.359375q0 -1.984375 1.015625 -3.046875q1.03125 -1.0625 3.015625 -1.0625q1.796875 0 3.515625 -0.0625q0.765625 -7.03125 1.671875 -17.078125q-6.921875 0.640625 -9.734375 2.234375q-2.8125 1.59375 -2.8125 4.734375q0 2.171875 1.28125 4.15625q0.375 0.578125 0.375 1.15625q0 1.15625 -1.28125 2.015625q-1.28125 0.859375 -2.875 0.859375q-1.734375 0 -2.9375 -1.015625q-0.78125 -0.640625 -1.484375 -2.625q-0.703125 -1.984375 -0.703125 -4.421875q0 -7.9375 8.15625 -11.515625q8.171875 -3.578125 23.84375 -3.578125q10.890621 0 19.203121 1.140625z" fill-rule="nonzero"/><path fill="#ffffff" d="m135.45033 17.377502q1.796875 0.265625 2.46875 1.09375q0.671875 0.828125 0.671875 2.171875q0 4.421875 -4.734375 4.09375l-2.25 -0.1875q-3.765625 -0.3125 -7.515625 -0.5q-3.75 -0.203125 -7.84375 -0.203125l-2.875 0q-0.765625 9.46875 -1.59375 17.28125l11.0 -0.1875q2.375 0 3.171875 0.828125q0.796875 0.828125 0.796875 2.234375q0 2.1875 -1.28125 3.4375q-1.28125 1.234375 -3.640625 1.234375l-10.953125 0l-0.375 2.75q-1.34375 10.5625 -5.734375 15.046875q-4.375 4.484375 -12.0625 4.484375q-4.359375 0 -8.0 -1.890625q-3.640625 -1.890625 -5.375 -4.578125q-0.703125 -1.09375 -0.703125 -2.625q0 -1.53125 0.734375 -2.6875q0.734375 -1.15625 1.828125 -1.15625q0.765625 0 1.5 0.515625q0.734375 0.515625 1.890625 1.984375q3.0625 4.03125 7.609375 4.03125q3.65625 0 6.109375 -2.96875q2.46875 -2.984375 3.171875 -9.375l0.390625 -3.53125l-3.078125 0q-1.46875 0 -2.53125 -0.828125q-1.046875 -0.828125 -1.046875 -2.359375q0 -1.984375 1.015625 -3.046875q1.03125 -1.0625 3.015625 -1.0625q1.796875 0 3.515625 -0.0625q0.765625 -7.03125 1.671875 -17.078125q-6.921875 0.640625 -9.734375 2.234375q-2.8125 1.59375 -2.8125 4.734375q0 2.171875 1.28125 4.15625q0.375 0.578125 0.375 1.15625q0 1.15625 -1.28125 2.015625q-1.28125 0.859375 -2.875 0.859375q-1.734375 0 -2.9375 -1.015625q-0.78125 -0.640625 -1.484375 -2.625q-0.703125 -1.984375 -0.703125 -4.421875q0 -7.9375 8.15625 -11.515625q8.171875 -3.578125 23.84375 -3.578125q10.890625 0 19.203125 1.140625z" fill-rule="nonzero"/></g></svg>